<svg width="91" height="89" viewBox="0 0 91 89" fill="none" xmlns="http://www.w3.org/2000/svg">
<path d="M32.7757 72.4543C31.668 75.5558 29.0507 75.1882 26.375 74.0014C22.5901 72.3221 17.5559 64.6565 17.0568 61.0395C16.5986 57.7199 17.7854 55.1199 20.3699 54.782" fill="#E5C073"/>
<path d="M32.7757 72.4543C31.668 75.5558 29.0507 75.1882 26.375 74.0014C22.5901 72.3221 17.5559 64.6565 17.0568 61.0395C16.5986 57.7199 17.7854 55.1199 20.3699 54.782" stroke="#614200" stroke-width="4.99999" stroke-linecap="round" stroke-linejoin="round"/>
<path d="M20.232 27.5926C16.2008 28.4672 18.4372 34.8521 21.8319 41.0871C23.15 43.5081 19.4212 53.3927 21.7189 59.688C23.2137 63.7836 28.8289 71.2628 32.785 72.2936C39.5586 74.0584 45.51 72.9033 51.4593 69.7384C53.5682 68.6166 55.7216 67.0202 57.338 65.5383C62.6462 60.6717 80.2298 54.6363 81.3515 53.0948C84.469 48.8123 78.4066 46.0973 75.0724 47.21C73.4575 47.749 61.144 50.31 62.7847 48.936C66.8151 45.5607 72.0729 41.9832 77.2308 38.8886C84.9493 34.2579 75.3681 26.0071 68.1855 30.4172C64.8206 32.4832 61.7685 33.8126 54.3675 38.5993C57.1236 34.5048 60.8607 28.35 63.988 24.7658C69.1446 18.8554 58.5664 13.1636 52.4133 20.5226C48.223 25.5342 41.6608 35.3898 32.6606 41.9773C32.7382 36.3419 32.3919 24.9541 20.2326 27.5917L20.232 27.5926Z" fill="#E5C073" stroke="#614200" stroke-width="4.99999" stroke-linecap="round" stroke-linejoin="round"/>
<path d="M53.8682 37.678C50.2297 42.4235 49.4475 45.6915 48.8728 47.1376C51.0732 44.1 51.5505 43.2711 54.1427 40.208C54.5822 39.6887 55.1805 39.1557 56.0087 38.6264L53.8682 37.678Z" fill="#614200"/>
<path d="M62.1719 48.2336C59.4854 50.4866 56.7865 53.8481 55.5706 56.5249C57.0189 55.2732 59.4891 53.1005 61.6532 51.155C62.2402 50.6272 62.8933 50.2995 64.0141 50.2229C63.2637 49.6921 62.7457 48.9386 62.1719 48.2336Z" fill="#614200"/>
<path d="M32.6441 66.7495C37.2645 65.3903 38.2411 64.5626 40.3561 63.5687" stroke="#614200" stroke-width="4.99999" stroke-linecap="round" stroke-linejoin="round"/>
<path d="M29.6807 63.6048C34.264 60.8895 36.2117 59.1519 39.0999 57.0653" stroke="#614200" stroke-width="4.99999" stroke-linecap="round" stroke-linejoin="round"/>
<path d="M26.2573 59.747C29.1326 57.4733 30.2775 56.1336 31.9586 54.5045" stroke="#614200" stroke-width="4.99999" stroke-linecap="round" stroke-linejoin="round"/>
</svg>
