<svg width="70" height="70" viewBox="0 0 70 70" fill="none" xmlns="http://www.w3.org/2000/svg">
<path d="M11.1434 47.0299C7.38859 48.9651 5.69057 45.8251 4.69911 41.8009C3.29795 36.1081 6.51591 23.0958 9.49752 18.9427C12.2544 15.1342 15.5771 13.7813 17.9575 16.1872" fill="#E5C073"/>
<path d="M11.1434 47.0299C7.38859 48.9651 5.69057 45.8251 4.69911 41.8009C3.29795 36.1081 6.51591 23.0958 9.49752 18.9427C12.2544 15.1342 15.5771 13.7813 17.9575 16.1872" stroke="#614200" stroke-width="4.99983" stroke-linecap="round" stroke-linejoin="round"/>
<path d="M43.1166 5.77893C34.566 3.82284 19.4535 11.4408 14.3992 22.5261C11.8416 28.259 9.18267 41.6579 11.3362 46.8845C14.9819 55.8302 20.7614 60.9797 28.3883 64.1174C31.09 65.2252 34.256 65.9037 36.929 66.1353C47.835 67.1884 56.5271 64.3659 56.7003 55.2776C65.9838 53.9836 66.5079 37.1687 59.7601 36.0046C68.949 28.8555 63.5994 15.4519 53.4256 18.9762C52.5081 16.9183 51.9934 7.81326 43.1166 5.77893Z" fill="#E5C073" stroke="#614200" stroke-width="4.99983" stroke-linecap="round" stroke-linejoin="round"/>
<path d="M59.2191 37.3348C51.9683 38.8465 49.293 37.3452 47.3942 37.1271C51.9727 36.3166 53.1435 36.2559 57.9744 34.9658C58.7961 34.7453 59.6442 34.4185 60.6627 33.547L60.5068 37.6876C60.6678 37.7422 59.7383 37.3209 59.2191 37.3348Z" fill="#614200"/>
<path d="M57.3807 56.4906C53.0969 56.8322 47.8262 56.6734 44.5813 55.0835C46.9372 54.9369 53.0307 54.0752 56.5774 53.9394C56.5777 53.9307 56.5695 53.9466 57.3807 56.4906Z" fill="#614200"/>
<path d="M16.3741 41.1766C21.2834 44.7129 22.831 44.9205 25.3983 46.1626" stroke="#614200" stroke-width="4.99983" stroke-linecap="round" stroke-linejoin="round"/>
<path d="M16.9885 34.8867C23.1382 37.0267 26.3043 37.3524 30.4968 38.3189" stroke="#614200" stroke-width="4.99983" stroke-linecap="round" stroke-linejoin="round"/>
<path d="M17.9088 27.395C22.3019 28.1669 24.4678 28.0407 27.2679 28.1837" stroke="#614200" stroke-width="4.99983" stroke-linecap="round" stroke-linejoin="round"/>
<path d="M54.2024 17.5484C44.5513 18.6494 41.4611 14.6854 37.1432 11.6866C41.4388 15.8796 42.3448 20.7881 53.4905 20.3308L54.2024 17.5484Z" fill="#614200"/>
</svg>
