<svg width="94" height="77" viewBox="0 0 94 77" fill="none" xmlns="http://www.w3.org/2000/svg">
<path d="M12.4399 37.8922C8.60551 38.5105 7.5114 35.5903 7.22169 32.1394C6.81319 27.2578 11.9087 17.6798 15.3704 15.1037C18.5663 12.7469 21.902 12.4863 23.7539 14.9893" fill="#E5C073"/>
<path d="M12.4399 37.8922C8.60551 38.5105 7.5114 35.5903 7.22169 32.1394C6.81319 27.2578 11.9087 17.6798 15.3704 15.1037C18.5663 12.7469 21.902 12.4863 23.7539 14.9893" stroke="#614200" stroke-width="4.99993" stroke-linecap="round" stroke-linejoin="round"/>
<path d="M49.0381 12.8853C41.3205 9.2225 25.915 11.5749 19.4023 19.1655C16.0869 23.1049 11.4547 33.1286 12.6441 37.8238C14.6418 45.8499 19.2484 51.3758 25.9104 55.753C28.2709 57.3006 31.1357 58.6203 33.6089 59.4626C42.7056 62.43 50.6826 57.7474 53.9054 55.6746C59.7 57.9402 66.4001 61.3637 72.543 64.9583C81.7311 70.3351 84.8494 55.7064 76.1905 50.7576C72.1369 48.4411 69.0211 46.0283 59.8501 41.0683C65.6664 41.6031 74.176 41.9837 79.6698 43.1914C88.7342 45.1853 88.6285 30.9744 77.4957 28.7702C69.9143 27.2696 63.8522 27.3351 56.6155 25.9393C56.0819 24.0734 57.0496 16.6907 49.0381 12.8853Z" fill="#E5C073" stroke="#614200" stroke-width="4.99993" stroke-linecap="round" stroke-linejoin="round"/>
<path d="M60.508 40.0208C53.5172 38.9417 49.6841 39.9872 47.8343 40.2033C52.253 40.7678 53.3875 40.7931 58.0363 41.7417C58.827 41.904 59.7185 42.2215 60.7401 42.7806L60.508 40.0208Z" fill="#614200"/>
<path d="M54.2728 54.6339C50.4054 53.1245 45.386 52.2349 41.9212 52.4954C46.1435 54.0444 49.4787 55.2631 53.5352 56.6448C53.5395 56.6343 53.8634 55.6279 54.2708 54.6329L54.2728 54.6339Z" fill="#614200"/>
<path d="M18.2845 34.5146C22.3309 38.5407 23.7512 39.0869 25.964 40.7085" stroke="#614200" stroke-width="4.99993" stroke-linecap="round" stroke-linejoin="round"/>
<path d="M19.8639 29.6532C25.2977 32.8717 28.2189 33.9104 32.0018 35.7121" stroke="#614200" stroke-width="4.99993" stroke-linecap="round" stroke-linejoin="round"/>
<path d="M21.922 23.9092C25.9243 25.6053 27.9783 26.0376 30.5849 26.8407" stroke="#614200" stroke-width="4.99993" stroke-linecap="round" stroke-linejoin="round"/>
<path d="M57.5725 24.9925C48.3342 23.4952 46.0641 19.5758 42.4873 16.1235C45.8528 20.522 45.9213 24.6567 56.4605 27.0347L57.5725 24.9925Z" fill="#614200"/>
</svg>
